<?xml version="1.0" encoding="UTF-8"?>
<svg width="80px" height="23px" viewBox="0 0 80 23" version="1.1" xmlns="http://www.w3.org/2000/svg" xmlns:xlink="http://www.w3.org/1999/xlink">
    <title>589DC71D-9FF2-47C6-849C-673970B414E8</title>
    <g id="END-TO-END" stroke="none" stroke-width="1" fill="none" fill-rule="evenodd">
        <g id="Email_2_Declined" transform="translate(-588.000000, -316.000000)">
            <g id="ServiceNow_logo_RGB_GG+A-2" transform="translate(588.000000, 316.000000)">
                <g id="ServiceNow_logo_RGB_GG+A">
                    <path d="M0.216,22.136 L0.216,1.24 L5.581,1.24 L5.581,2.92 C7.169,1.628 9.143,0.809 11.461,0.809 C14.337,0.809 16.954,2.101 18.671,4.17 C20.045,5.807 20.817,7.918 20.817,11.494 L20.817,22.136 L15.238,22.136 L15.238,11.063 C15.238,8.995 14.766,7.918 13.994,7.143 C13.263,6.41 12.148,5.979 10.86,5.979 C8.499,5.979 6.568,7.487 5.796,8.564 L5.796,22.136 L0.216,22.136" id="Fill-9" fill="#273737"></path>
                    <path d="M35.114,19.128 C31.502,19.128 29.031,16.409 29.031,13.045 C29.031,9.68 31.502,6.916 35.114,6.916 C38.726,6.916 41.197,9.68 41.197,13.045 C41.197,16.409 38.726,19.128 35.114,19.128 M35.185,0.808802663 C28.518,0.771 23.003,6.226 22.948,12.918 C22.919,16.461 24.393,19.66 26.769,21.908 C27.633,22.726 28.969,22.805 29.906,22.074 C31.291,20.993 33.07,20.349 35.114,20.349 C37.158,20.349 38.936,20.993 40.321,22.074 C41.266,22.811 42.608,22.717 43.477,21.891 C45.818,19.665 47.28,16.514 47.28,13.021 C47.28,6.301 41.87,0.848 35.185,0.808802663" id="Fill-10" fill="#7CAD95"></path>
                    <polyline id="Fill-11" fill="#273737" points="58.321 22.136 54.166 22.136 45.88 1.24 51.451 1.24 55.993 13.181 60.449 1.24 65.104 1.24 69.519 13.181 74.102 1.24 79.675 1.24 71.389 22.136 67.231 22.136 62.777 10.237 58.321 22.136"></polyline>
                    <polyline id="Fill-12" fill="#273737" points="76.614 19.481 76.614 19.936 75.914 19.936 75.914 22.136 75.401 22.136 75.401 19.936 74.7 19.936 74.7 19.481 76.614 19.481"></polyline>
                    <polyline id="Fill-13" fill="#273737" points="78.348 21.07 79.314 19.481 79.675 19.481 79.675 22.136 79.163 22.136 79.163 20.657 78.525 21.699 78.17 21.699 77.532 20.657 77.532 22.136 77.021 22.136 77.021 19.481 77.381 19.481 78.348 21.07"></polyline>
                </g>
            </g>
        </g>
    </g>
</svg>